<svg width="74" height="40" viewBox="0 0 74 40" fill="none" xmlns="http://www.w3.org/2000/svg">
<path d="M73.0252 9.5488C73.0355 9.82475 72.8202 10.0568 72.5442 10.0671L68.0473 10.2348C67.7714 10.2451 67.5393 10.0298 67.529 9.75383C67.5187 9.47787 67.7341 9.24583 68.0101 9.23553L72.0073 9.08642L71.8582 5.0892C71.8479 4.81325 72.0632 4.5812 72.3392 4.57091C72.6151 4.56062 72.8472 4.77597 72.8575 5.05192L73.0252 9.5488ZM72.1854 9.93392C71.9414 9.7074 71.6959 9.48488 71.4491 9.26644L72.1119 8.51759C72.3647 8.74136 72.616 8.96918 72.8657 9.20095L72.1854 9.93392ZM69.9371 7.9942C69.418 7.57987 68.8929 7.18363 68.3616 6.80627L68.9406 5.99095C69.4878 6.37957 70.0278 6.78711 70.561 7.21265L69.9371 7.9942ZM66.7213 5.71477C66.1601 5.36615 65.592 5.03847 65.0167 4.73262L65.4862 3.84967C66.0819 4.16639 66.6694 4.50529 67.249 4.86532L66.7213 5.71477ZM63.2503 3.87291C62.6502 3.60754 62.0423 3.36563 61.4266 3.14811L61.7596 2.20521C62.4001 2.43146 63.0317 2.68286 63.6547 2.95834L63.2503 3.87291ZM59.5527 2.56904C58.9231 2.40193 58.2852 2.25989 57.6386 2.14388L57.8152 1.1596C58.4889 1.28048 59.1536 1.42847 59.8093 1.60251L59.5527 2.56904ZM55.6972 1.87721C55.0535 1.81546 54.4012 1.77904 53.74 1.76885L53.7554 0.768967C54.4432 0.779564 55.1223 0.817464 55.7927 0.881775L55.6972 1.87721ZM51.7785 1.81484C51.1352 1.85454 50.4835 1.91862 49.8232 2.0079L49.6892 1.01691C50.3731 0.924444 51.049 0.857958 51.7169 0.816736L51.7785 1.81484ZM47.8827 2.33843C47.2507 2.46795 46.611 2.62011 45.9633 2.7956L45.7018 1.83041C46.3691 1.64961 47.0291 1.49259 47.6819 1.35879L47.8827 2.33843ZM44.0758 3.36615C43.4654 3.56949 42.8482 3.79315 42.2239 4.03765L41.8592 3.10652C42.4991 2.85591 43.1325 2.62636 43.7597 2.41742L44.0758 3.36615ZM40.4043 4.80096C39.814 5.06476 39.2176 5.34685 38.615 5.64763L38.1684 4.7529C38.7833 4.44595 39.3926 4.15776 39.9962 3.88799L40.4043 4.80096ZM36.8533 6.5709C36.284 6.88325 35.7094 7.21198 35.1292 7.5574L34.6176 6.69818C35.2076 6.34692 35.7924 6.01236 36.3723 5.6942L36.8533 6.5709ZM33.4491 8.59498C32.9004 8.94583 32.3469 9.31136 31.7885 9.69181L31.2254 8.86544C31.7916 8.47964 32.3532 8.10873 32.9104 7.75248L33.4491 8.59498ZM30.1525 10.8396C29.6278 11.2182 29.0989 11.6097 28.5658 12.0145L27.9611 11.218C28.5005 10.8085 29.0359 10.4121 29.5674 10.0286L30.1525 10.8396ZM26.9874 13.2415C26.477 13.6474 25.9629 14.0652 25.445 14.4951L24.8064 13.7256C25.3295 13.2914 25.849 12.8692 26.3649 12.4589L26.9874 13.2415ZM23.9276 15.7794C23.4291 16.2096 22.9272 16.6507 22.4217 17.1029L21.7549 16.3576C22.2648 15.9015 22.7712 15.4564 23.2744 15.0223L23.9276 15.7794ZM20.9581 18.4343C20.4718 18.884 19.9823 19.3438 19.4896 19.8139L18.7993 19.0903C19.2957 18.6167 19.789 18.1534 20.2792 17.7001L20.9581 18.4343ZM18.0722 21.1858C17.5983 21.6511 17.1214 22.1257 16.6416 22.6097L15.9314 21.9058C16.4143 21.4185 16.8944 20.9407 17.3716 20.4722L18.0722 21.1858ZM15.2627 24.0186C14.8012 24.4961 14.3369 24.9822 13.87 25.477L13.1427 24.7907C13.6124 24.293 14.0793 23.804 14.5437 23.3236L15.2627 24.0186ZM12.5223 26.9214C12.073 27.4082 11.6213 27.903 11.167 28.4058L10.425 27.7355C10.8815 27.2301 11.3357 26.7327 11.7874 26.2432L12.5223 26.9214ZM9.84344 29.886C9.40624 30.3798 8.96676 30.881 8.525 31.3896L7.77003 30.7338C8.21383 30.2229 8.6554 29.7193 9.09473 29.2231L9.84344 29.886ZM7.21911 32.9069C6.7937 33.4057 6.36619 33.9114 5.93657 34.4238L5.17022 33.7814C5.60164 33.2668 6.03098 32.759 6.45826 32.258L7.21911 32.9069ZM4.64243 35.9807C4.22847 36.4828 3.81258 36.9912 3.39475 37.506L2.61831 36.8759C3.03772 36.3591 3.45522 35.8487 3.87082 35.3446L4.64243 35.9807ZM2.1354 39.0696C1.92453 39.3333 1.71317 39.5987 1.50132 39.8657L0.717966 39.2441C0.930561 38.9762 1.14267 38.7099 1.3543 38.4452L2.1354 39.0696Z" fill="#6F764D"/>
</svg>
