<svg width="77" height="47" viewBox="0 0 77 47" fill="none" xmlns="http://www.w3.org/2000/svg">
<path d="M0.501757 14.35C0.478754 14.6252 0.683183 14.8669 0.958366 14.8899L5.44273 15.2648C5.71791 15.2878 5.95964 15.0834 5.98264 14.8082C6.00564 14.533 5.80121 14.2913 5.52603 14.2683L1.53993 13.935L1.87315 9.94895C1.89616 9.67377 1.69173 9.43204 1.41654 9.40904C1.14136 9.38603 0.899634 9.59046 0.87663 9.86564L0.501757 14.35ZM1.32289 14.7734C1.58345 14.5531 1.844 14.3349 2.10455 14.1189L1.46641 13.349C1.20328 13.5671 0.940186 13.7874 0.677147 14.0099L1.32289 14.7734ZM3.6678 12.8501C4.20197 12.4258 4.73608 12.011 5.27011 11.6063L4.66604 10.8093C4.12579 11.2188 3.5857 11.6382 3.0458 12.0671L3.6678 12.8501ZM6.89357 10.4064C7.44243 10.0112 7.99116 9.62677 8.53973 9.25353L7.97719 8.42676C7.42106 8.80515 6.86507 9.19463 6.30925 9.59483L6.89357 10.4064ZM10.2302 8.13862C10.8027 7.77309 11.3749 7.42008 11.9469 7.07996L11.4358 6.22044C10.8544 6.56615 10.2731 6.92473 9.69201 7.29577L10.2302 8.13862ZM13.6915 6.08248C14.2855 5.75654 14.8792 5.44495 15.4725 5.1481L15.025 4.2538C14.4201 4.55649 13.8152 4.87397 13.2105 5.20577L13.6915 6.08248ZM17.2928 4.28343C17.9101 4.00601 18.5269 3.74505 19.1431 3.50102L18.775 2.57126C18.1442 2.82105 17.5135 3.0879 16.8829 3.37131L17.2928 4.28343ZM21.0238 2.8087C21.6612 2.59198 22.298 2.39393 22.9341 2.21504L22.6634 1.25238C22.0096 1.43626 21.3557 1.63964 20.7019 1.86192L21.0238 2.8087ZM24.8789 1.72784C25.5353 1.58377 26.191 1.46072 26.8459 1.35924L26.6928 0.371034C26.0168 0.475778 25.3407 0.602681 24.6645 0.75109L24.8789 1.72784ZM28.8288 1.11824C29.4937 1.05989 30.1578 1.02445 30.821 1.0125L30.803 0.0126584C30.1161 0.0250376 29.4289 0.0617335 28.7414 0.122071L28.8288 1.11824ZM32.8147 1.04804C33.4777 1.08388 34.1399 1.14391 34.8014 1.22873L34.9286 0.236852C34.2426 0.148885 33.556 0.0866503 32.8687 0.0494962L32.8147 1.04804ZM36.7687 1.55518C37.4146 1.68696 38.0599 1.84311 38.7045 2.02423L38.975 1.0615C38.3071 0.873853 37.6383 0.712 36.9686 0.575364L36.7687 1.55518ZM40.6027 2.63094C41.2216 2.85294 41.8401 3.09864 42.458 3.36861L42.8584 2.45226C42.2201 2.17339 41.5807 1.91936 40.9403 1.68966L40.6027 2.63094ZM44.2673 4.22979C44.8514 4.53084 45.435 4.85417 46.0182 5.20028L46.5286 4.34032C45.9286 3.98426 45.3276 3.65126 44.7254 3.34091L44.2673 4.22979ZM47.7044 6.26584C48.2502 6.63194 48.7956 7.01849 49.3405 7.42588L49.9393 6.62497C49.3811 6.20761 48.8218 5.81118 48.2614 5.43535L47.7044 6.26584ZM50.9312 8.67582C51.4349 9.09103 51.9381 9.52444 52.4409 9.97639L53.1094 9.23268C52.5963 8.77144 52.0823 8.3287 51.5673 7.90419L50.9312 8.67582ZM53.9095 11.3508C54.3851 11.8136 54.8602 12.2934 55.3349 12.7903L56.058 12.0996C55.5752 11.5941 55.0915 11.1057 54.6069 10.6341L53.9095 11.3508ZM56.69 14.2575C57.1337 14.7539 57.577 15.2656 58.0198 15.7929L58.7856 15.1497C58.3363 14.6148 57.8863 14.0953 57.4355 13.591L56.69 14.2575ZM59.2863 17.345C59.6991 17.8654 60.1115 18.3996 60.5234 18.9477L61.3228 18.3468C60.9058 17.792 60.4881 17.251 60.0697 16.7235L59.2863 17.345ZM61.7144 20.5729C62.1005 21.1132 62.4862 21.6658 62.8714 22.2309L63.6977 21.6677C63.3084 21.0965 62.9185 20.5378 62.528 19.9915L61.7144 20.5729ZM63.9912 23.9111C64.3546 24.4686 64.7176 25.0374 65.0802 25.6177L65.9282 25.0879C65.5624 24.5022 65.1959 23.928 64.8289 23.365L63.9912 23.9111ZM66.1332 27.3375C66.4776 27.9113 66.8216 28.4956 67.1652 29.0905L68.0311 28.5903C67.6848 27.9907 67.3379 27.4016 66.9906 26.8229L66.1332 27.3375ZM68.1559 30.8374C68.4846 31.4274 68.8129 32.0274 69.1408 32.6372L70.0216 32.1636C69.6914 31.5495 69.3607 30.9452 69.0295 30.3507L68.1559 30.8374ZM70.0736 34.4011C70.3842 34.998 70.6944 35.604 71.0042 36.219L71.8973 35.7691C71.5856 35.1503 71.2734 34.5404 70.9608 33.9395L70.0736 34.4011ZM71.8992 38.0232C72.1918 38.6223 72.4842 39.2296 72.7761 39.8452L73.6797 39.4166C73.3861 38.7976 73.0921 38.1868 72.7977 37.5842L71.8992 38.0232ZM73.6437 41.7012C73.9198 42.3004 74.1956 42.907 74.471 43.5213L75.3835 43.1121C75.1067 42.4948 74.8295 41.885 74.552 41.2827L73.6437 41.7012ZM75.2963 45.3866C75.4336 45.7013 75.5709 46.0179 75.7081 46.3364L76.6265 45.9408C76.4887 45.6208 76.3508 45.3027 76.2127 44.9866L75.2963 45.3866Z" fill="#6F764D"/>
</svg>
