<svg width="70" height="70" viewBox="0 0 70 70" fill="none" xmlns="http://www.w3.org/2000/svg">
<path d="M41.0084 28.9917L35 26.25L41.0084 23.5084L43.75 17.5L46.4917 23.5084L52.5 26.25L46.4917 28.9917L43.75 35L41.0084 28.9917ZM11.6667 40.8334L14.4084 34.825L20.4167 32.0834L14.4084 29.3417L11.6667 23.3334L8.92502 29.3417L2.91669 32.0834L8.92502 34.825L11.6667 40.8334ZM24.7917 26.25L27.9709 19.2209L35 16.0417L27.9709 12.8625L24.7917 5.83337L21.6125 12.8625L14.5834 16.0417L21.6125 19.2209L24.7917 26.25ZM13.125 59.7917L30.625 42.2625L42.2917 53.9292L67.0834 26.0459L62.9709 21.9334L42.2917 45.1792L30.625 33.5125L8.75002 55.4167L13.125 59.7917Z" fill="white"/>
</svg>
