<svg width="149" height="31" viewBox="0 0 149 31" fill="none" xmlns="http://www.w3.org/2000/svg">
<path fill-rule="evenodd" clip-rule="evenodd" d="M11.7066 21.9949C14.0957 25.8997 18.4757 28.5296 23.3335 28.5296C30.5008 28.5296 34.4826 22.3136 34.4826 22.3136L34.9605 23.9871C31.6157 28.2905 25.643 30.9203 19.0331 30.9203C11.388 30.9203 4.77819 27.2545 1.752 21.9949C0.637093 20.0026 0 17.8509 0 15.4602C0 6.93316 8.52111 0 19.1128 0C26.5986 0 32.5714 3.18766 35.7568 7.80977L23.2539 15.3008L30.4212 4.30334C28.3506 3.02828 25.8819 1.8329 23.2539 1.8329C15.9273 1.8329 9.87493 7.96915 9.87493 15.3008C9.87493 17.7712 10.512 20.0823 11.7066 21.9949Z" fill="#595959"/>
<path fill-rule="evenodd" clip-rule="evenodd" d="M45.2336 21.9948C45.2336 22.2339 45.1539 22.4729 45.1539 22.712C45.1539 25.5012 47.3837 27.7326 50.171 27.7326C52.9583 27.7326 55.1881 25.5012 55.1881 22.712C55.1881 22.4729 55.1881 22.2339 55.1085 21.9151C54.7103 19.5244 52.6398 17.6118 50.171 17.6118C47.7023 17.7711 45.6317 19.604 45.2336 21.9948ZM63.9482 21.9948L66.4169 30.4421H57.6569L55.9049 24.7043C54.7103 28.0513 50.8878 30.4421 46.1892 30.4421C40.6146 30.4421 36.155 26.9357 36.155 22.6323C36.155 22.3933 36.155 22.2339 36.155 21.9948C36.5532 17.9305 40.8536 14.7429 46.1892 14.7429C49.2154 14.7429 51.8434 15.7789 53.7547 17.3727L51.3656 9.40353H41.3314C41.3314 9.40353 43.0037 8.36755 50.4099 5.65803C57.8161 2.94852 60.2052 9.40353 60.2052 9.40353L63.9482 21.9948Z" fill="#595959"/>
<path fill-rule="evenodd" clip-rule="evenodd" d="M91.9802 21.9948V30.4421H82.9813V21.9948V11.9537C82.9813 10.5989 81.8664 9.48325 80.5126 9.48325C79.4773 9.48325 78.6013 10.1208 78.2031 11.0771V22.0745V30.5218H69.2838V21.9948V9.48325H64.1074C64.1074 9.48325 71.2747 5.10022 73.8231 5.10022C76.2122 5.10022 77.9642 6.93312 78.1235 9.24418C81.6275 7.33158 85.0518 5.10022 87.4409 5.10022C89.9097 5.10022 91.9006 7.09251 91.9802 9.48325V21.9948Z" fill="#595959"/>
<path fill-rule="evenodd" clip-rule="evenodd" d="M105.837 21.9949L107.111 26.1389C107.111 27.8921 108.624 29.3265 110.376 29.3265C112.208 29.3265 113.721 27.8124 113.721 25.9795C113.721 25.8201 113.721 25.7404 113.721 25.581L112.686 21.9152L108.943 9.08488C108.784 7.41135 107.35 6.13629 105.678 6.13629C104.005 6.13629 102.333 7.73012 102.174 9.32395L105.837 21.9949ZM120.251 21.9949C118.579 27.1749 113.641 30.9203 107.908 30.9203C102.174 30.9203 97.2362 27.1749 95.5639 21.9949C95.1657 20.7198 94.9268 19.3651 94.9268 17.9306C94.9268 10.7584 100.74 4.94092 107.908 4.94092C115.075 4.94092 120.888 10.7584 120.888 17.9306C120.888 19.3651 120.649 20.7198 120.251 21.9949Z" fill="#595959"/>
<path fill-rule="evenodd" clip-rule="evenodd" d="M135.223 21.9948V30.4421H126.383V21.9948V9.48325H121.446C121.446 9.48325 128.454 5.10022 130.922 5.10022C133.312 5.10022 135.064 6.93312 135.223 9.24418C138.727 7.33158 142.151 5.10022 144.54 5.10022C147.009 5.10022 149 7.09251 149.08 9.48325V21.9948V30.4421H140.081V21.9948V11.9537C140.081 10.5989 138.966 9.48325 137.612 9.48325C136.577 9.48325 135.701 10.1208 135.302 11.0771V21.9948H135.223Z" fill="#595959"/>
</svg>
