<svg width="50" height="50" viewBox="0 0 50 50" fill="none" xmlns="http://www.w3.org/2000/svg">
<path d="M43.75 43.75L31.25 31.25L43.75 43.75ZM35.4167 20.8333C35.4167 22.7484 35.0395 24.6448 34.3066 26.4141C33.5737 28.1835 32.4995 29.7911 31.1453 31.1453C29.7911 32.4995 28.1835 33.5737 26.4141 34.3066C24.6448 35.0395 22.7484 35.4167 20.8333 35.4167C18.9182 35.4167 17.0219 35.0395 15.2525 34.3066C13.4832 33.5737 11.8755 32.4995 10.5214 31.1453C9.16717 29.7911 8.09297 28.1835 7.36009 26.4141C6.62721 24.6448 6.25 22.7484 6.25 20.8333C6.25 16.9656 7.78645 13.2563 10.5214 10.5214C13.2563 7.78645 16.9656 6.25 20.8333 6.25C24.7011 6.25 28.4104 7.78645 31.1453 10.5214C33.8802 13.2563 35.4167 16.9656 35.4167 20.8333Z" stroke="white" stroke-width="3" stroke-linecap="round" stroke-linejoin="round"/>
</svg>
