<svg width="76" height="70" viewBox="0 0 76 70" fill="none" xmlns="http://www.w3.org/2000/svg">
<g filter="url(#filter0_d_606_46)">
<path d="M71.2363 29.5721L64.5117 16.6943C64.0438 15.808 63.2484 15.1393 62.2949 14.8307C61.3414 14.5221 60.3051 14.5978 59.4066 15.0419L52.925 18.2824H48.1976L39.0675 14.1513C38.2349 13.7749 37.2952 13.7085 36.4179 13.964L22.9041 17.9039L16.5937 14.749C15.6952 14.3049 14.6589 14.2291 13.7054 14.5376C12.7518 14.8461 11.9563 15.5146 11.4883 16.4009L4.76368 29.2792C4.52838 29.7299 4.3852 30.2229 4.34251 30.7295C4.29981 31.2361 4.35844 31.7461 4.51498 32.2298C4.67153 32.7135 4.92285 33.1611 5.25427 33.5466C5.5857 33.9321 5.99059 34.2478 6.44532 34.4751L13.057 37.7809L27.8735 49.3668C28.2955 49.6976 28.7827 49.9356 29.3031 50.0651L45.1507 54.027C45.4516 54.102 45.7606 54.1398 46.0708 54.1396C47.0883 54.1397 48.0646 53.7372 48.7863 53.0199L58.848 42.9582C58.8562 42.95 58.8633 42.9415 58.8709 42.9333C58.8815 42.9222 58.8919 42.9109 58.9021 42.8994C58.913 42.8877 58.9243 42.8765 58.9349 42.8639L63.0936 37.9989L69.5552 34.7679C70.0099 34.5406 70.4148 34.2249 70.7462 33.8394C71.0776 33.4539 71.3289 33.0062 71.4854 32.5226C71.6419 32.0389 71.7005 31.5289 71.6578 31.0223C71.6151 30.5157 71.4719 30.0227 71.2366 29.5721H71.2363ZM57.4258 39.5793L46.6212 31.7213C46.3374 31.515 45.995 31.405 45.6442 31.4076C45.2933 31.4102 44.9525 31.5252 44.6719 31.7358L41.1719 34.3608C39.9389 35.2781 38.443 35.7735 36.9063 35.7735C35.3695 35.7735 33.8736 35.2781 32.6406 34.3608L31.1583 33.249C31.0957 33.2019 31.044 33.142 31.0065 33.0732C30.9691 33.0044 30.9468 32.9284 30.9413 32.8503C30.9358 32.7721 30.947 32.6937 30.9744 32.6203C31.0017 32.547 31.0445 32.4803 31.0998 32.4248L41.8005 21.7239C41.9033 21.6217 42.0422 21.5641 42.1872 21.5636H47.835L47.8427 21.5642L47.8481 21.5636H52.3183L60.0951 36.4567L57.4258 39.5793ZM7.63669 31.2193C7.61416 31.1502 7.6057 31.0774 7.61181 31.005C7.61791 30.9326 7.63846 30.8622 7.67223 30.7979L14.3969 17.9198C14.4436 17.8312 14.5136 17.7571 14.5994 17.7055C14.6852 17.6538 14.7835 17.6266 14.8836 17.6267C14.9678 17.6265 15.0509 17.6461 15.1261 17.6838L20.4601 20.3507L13.2293 34.1989L7.91258 31.5403C7.84751 31.5079 7.78957 31.4629 7.74219 31.4078C7.6948 31.3527 7.65893 31.2887 7.63669 31.2195V31.2193ZM46.4662 50.6995C46.3992 50.7661 46.3162 50.8144 46.2251 50.8396C46.1341 50.8647 46.0381 50.866 45.9464 50.8433L30.0985 46.8815C30.0242 46.8631 29.9547 46.8292 29.8945 46.782L16.0238 35.9358L23.7897 21.0635L37.3364 17.114C37.4618 17.0777 37.596 17.0872 37.7151 17.1408L40.809 18.5408C40.3107 18.7323 39.8582 19.0263 39.4807 19.4038L28.7797 30.1047C28.3919 30.4926 28.0919 30.9592 27.9001 31.4731C27.7083 31.9869 27.6292 32.536 27.6681 33.0831C27.707 33.6302 27.863 34.1626 28.1255 34.6441C28.3881 35.1257 28.751 35.5452 29.1898 35.8743L30.6719 36.9855C32.4739 38.3264 34.6601 39.0505 36.9063 39.0505C39.1524 39.0505 41.3386 38.3264 43.1406 36.9855L45.6713 35.0879L55.1697 41.9957L46.4662 50.6995ZM68.3633 31.5124C68.3411 31.5816 68.3052 31.6456 68.2578 31.7007C68.2104 31.7558 68.1525 31.8008 68.0874 31.8331L62.7707 34.4918L55.5399 20.6438L60.8739 17.9767C61.0022 17.9132 61.1503 17.9023 61.2865 17.9465C61.4228 17.9906 61.5364 18.0862 61.6031 18.2129L68.3278 31.0907C68.3615 31.1551 68.3821 31.2256 68.3882 31.298C68.3943 31.3704 68.3858 31.4433 68.3633 31.5124ZM35.2167 58.6021C35.1645 58.8112 35.0717 59.008 34.9435 59.1812C34.8152 59.3543 34.6541 59.5006 34.4694 59.6115C34.2846 59.7223 34.0798 59.7957 33.8666 59.8274C33.6535 59.8591 33.4362 59.8485 33.2272 59.7962L24.9857 57.7359C24.4007 57.5886 23.8584 57.306 23.4025 56.9109L17.236 51.5507C17.072 51.4098 16.9375 51.2378 16.8401 51.0447C16.7428 50.8516 16.6847 50.6411 16.669 50.4255C16.6533 50.2098 16.6804 49.9932 16.7487 49.788C16.817 49.5828 16.9252 49.3932 17.0671 49.23C17.209 49.0668 17.3817 48.9333 17.5754 48.8371C17.7691 48.7409 17.9798 48.6839 18.1956 48.6695C18.4114 48.655 18.6278 48.6833 18.8326 48.7528C19.0374 48.8224 19.2264 48.9317 19.3888 49.0745L25.5556 54.4347C25.621 54.4914 25.6988 54.532 25.7828 54.5531L34.0229 56.6126C34.445 56.7182 34.8078 56.9871 35.0317 57.3602C35.2556 57.7332 35.3221 58.18 35.2167 58.6021Z" fill="white"/>
</g>
<defs>
<filter id="filter0_d_606_46" x="-1" y="0" width="78" height="78" filterUnits="userSpaceOnUse" color-interpolation-filters="sRGB">
<feFlood flood-opacity="0" result="BackgroundImageFix"/>
<feColorMatrix in="SourceAlpha" type="matrix" values="0 0 0 0 0 0 0 0 0 0 0 0 0 0 0 0 0 0 127 0" result="hardAlpha"/>
<feOffset dy="4"/>
<feGaussianBlur stdDeviation="2"/>
<feComposite in2="hardAlpha" operator="out"/>
<feColorMatrix type="matrix" values="0 0 0 0 0 0 0 0 0 0 0 0 0 0 0 0 0 0 0.25 0"/>
<feBlend mode="normal" in2="BackgroundImageFix" result="effect1_dropShadow_606_46"/>
<feBlend mode="normal" in="SourceGraphic" in2="effect1_dropShadow_606_46" result="shape"/>
</filter>
</defs>
</svg>
