<svg width="17" height="15" viewBox="0 0 17 15" fill="none" xmlns="http://www.w3.org/2000/svg">
<path d="M15.6891 1.32611C15.2738 0.905694 14.7806 0.572191 14.2377 0.344652C13.6949 0.117114 13.1131 0 12.5255 0C11.9379 0 11.3561 0.117114 10.8133 0.344652C10.2704 0.572191 9.77724 0.905694 9.36186 1.32611L8.49978 2.19821L7.63771 1.32611C6.79866 0.477297 5.66066 0.000439969 4.47407 0.000439978C3.28747 0.000439986 2.14947 0.477297 1.31042 1.32611C0.471374 2.17492 8.84083e-09 3.32616 0 4.52656C-8.84083e-09 5.72696 0.471374 6.87819 1.31042 7.727L2.1725 8.5991L8.49978 15L14.8271 8.5991L15.6891 7.727C16.1047 7.30679 16.4344 6.80785 16.6593 6.25871C16.8842 5.70957 17 5.12097 17 4.52656C17 3.93214 16.8842 3.34355 16.6593 2.7944C16.4344 2.24526 16.1047 1.74633 15.6891 1.32611Z" fill="white"/>
</svg>
