<svg width="139" height="28" viewBox="0 0 139 28" fill="none" xmlns="http://www.w3.org/2000/svg">
<path d="M9.19531 27.2168C4.81055 27.2168 1.90039 26.6748 0.464844 25.5908V18.8818C0.503906 18.8916 0.645508 18.9355 0.889648 19.0137C1.14355 19.0918 1.46094 19.1895 1.8418 19.3066C2.73047 19.5801 3.66309 19.8389 4.63965 20.083C5.62598 20.3174 6.41699 20.4346 7.0127 20.4346C7.98926 20.4346 8.47754 20.1367 8.47754 19.541C8.47754 19.082 8.05762 18.5938 7.21777 18.0762C6.83691 17.8418 6.40234 17.5977 5.91406 17.3438C5.43555 17.0898 4.94727 16.8066 4.44922 16.4941C3.22852 15.7422 2.24707 14.8633 1.50488 13.8574C0.772461 12.8516 0.40625 11.582 0.40625 10.0488C0.40625 6.69922 2.17383 4.44824 5.70898 3.2959C7.14453 2.82715 8.7998 2.59277 10.6748 2.59277C12.5596 2.59277 14.5273 2.80762 16.5781 3.2373C16.998 3.3252 17.2764 3.38867 17.4131 3.42773V10.1514C14.7568 9.58496 12.8477 9.30176 11.6855 9.30176C11.2363 9.30176 10.8994 9.37988 10.6748 9.53613C10.4502 9.69238 10.3379 9.86816 10.3379 10.0635C10.3379 10.2588 10.4355 10.4639 10.6309 10.6787C10.8262 10.8838 11.1631 11.0938 11.6416 11.3086C12.1201 11.5137 12.6768 11.7676 13.3115 12.0703C13.9561 12.3633 14.5566 12.6807 15.1133 13.0225C17.6133 14.5557 18.8633 16.6504 18.8633 19.3066C18.8633 21.8262 18.0137 23.7744 16.3145 25.1514C14.5957 26.5186 12.2227 27.207 9.19531 27.2168Z" fill="#6F764D"/>
<path d="M23.9756 25.0342C23.1943 24.3018 22.5693 23.3838 22.1006 22.2803C21.6416 21.167 21.4121 19.9707 21.4121 18.6914C21.4121 17.4121 21.5391 16.3037 21.793 15.3662C22.3008 13.501 23.1895 11.9336 24.459 10.6641C25.0645 10.0391 25.7383 9.51172 26.4805 9.08203C28.0039 8.19336 29.6104 7.74902 31.2998 7.74902C32.999 7.74902 34.4883 8.31055 35.7676 9.43359C36.1777 9.79492 36.5342 10.21 36.8369 10.6787L38.9316 8.4375H43.7363V26.6455H38.9316L36.8369 23.6133C35.2354 25.9766 32.8086 27.1631 29.5566 27.1729C28.6582 27.1826 27.6963 27.0068 26.6709 26.6455C25.6553 26.2939 24.7568 25.7568 23.9756 25.0342ZM35.8408 13.96C35.4893 13.7549 35.0693 13.6523 34.5811 13.6523C34.0928 13.6523 33.5752 13.8281 33.0283 14.1797C32.4912 14.5215 32.0078 14.9561 31.5781 15.4834C30.6211 16.665 30.1426 17.8662 30.1426 19.0869C30.1426 19.9463 30.4062 20.5518 30.9336 20.9033C31.4219 21.2256 32.1641 21.1816 33.1602 20.7715C34.166 20.3516 35.0596 19.8096 35.8408 19.1455V13.96Z" fill="#6F764D"/>
<path d="M51.749 0C53.1846 0 54.249 0.302734 54.9424 0.908203C55.6357 1.50391 55.9775 2.26562 55.9678 3.19336C55.9678 4.12109 55.5234 4.97559 54.6348 5.75684C53.7559 6.53809 52.5791 6.92871 51.1045 6.92871C49.0342 6.92871 47.7451 6.30371 47.2373 5.05371C47.0908 4.70215 47.0176 4.31152 47.0176 3.88184C47.0176 3.45215 47.1201 3.00293 47.3252 2.53418C47.5303 2.06543 47.8379 1.64551 48.248 1.27441C49.1562 0.424805 50.3232 0 51.749 0ZM55.7188 26.6455H47.2373V8.4375H55.7188V26.6455Z" fill="#6F764D"/>
<path d="M78.6875 10.9277C80.3477 8.80859 82.457 7.74902 85.0156 7.74902C85.7188 7.74902 86.4414 7.89551 87.1836 8.18848C87.9355 8.48145 88.5898 8.90625 89.1465 9.46289C90.3574 10.6738 90.9629 12.2607 90.9629 14.2236V26.6455H82.4668V17.2559C82.4668 16.0547 82.2764 15.1123 81.8955 14.4287C81.5146 13.7354 81.0605 13.3887 80.5332 13.3887C80.0156 13.3789 79.6738 13.7158 79.5078 14.3994C79.459 14.5947 79.4346 14.8145 79.4346 15.0586V26.6455H71.1289V17.2559C71.1289 16.0547 70.9189 15.1123 70.499 14.4287C70.0889 13.7354 69.6396 13.3887 69.1514 13.3887C68.3701 13.3887 67.9795 14.0186 67.9795 15.2783V26.6455H59.2783V8.4375H64.083L66.1777 11.2793C66.8906 10.2051 67.9062 9.35059 69.2246 8.71582C70.5527 8.07129 71.9053 7.74902 73.2822 7.74902C75.0693 7.74902 76.5488 8.35449 77.7207 9.56543C78.1016 9.95605 78.4238 10.4102 78.6875 10.9277Z" fill="#6F764D"/>
<path d="M106.988 13.623C106.793 13.5254 106.539 13.4766 106.227 13.4766C105.924 13.4766 105.587 13.5693 105.216 13.7549C104.845 13.9307 104.479 14.1748 104.117 14.4873C103.355 15.1514 102.716 15.957 102.198 16.9043C101.681 17.8516 101.422 18.7256 101.422 19.5264C101.422 20.3174 101.725 20.8496 102.33 21.123C102.545 21.2207 102.809 21.2695 103.121 21.2695C103.434 21.2695 103.761 21.1768 104.103 20.9912C104.444 20.7959 104.786 20.5371 105.128 20.2148C105.841 19.541 106.466 18.7256 107.003 17.7686C107.54 16.8018 107.809 15.9375 107.809 15.1758C107.809 14.4141 107.535 13.8965 106.988 13.623ZM104.146 27.1875C101.354 27.1875 98.9463 26.3037 96.9248 24.5361C94.7666 22.6611 93.6875 20.3027 93.6875 17.4609C93.6875 14.6094 94.6982 12.2803 96.7197 10.4736C98.7412 8.65723 101.236 7.74902 104.205 7.74902C107.174 7.74902 109.669 8.6377 111.69 10.415C113.712 12.1826 114.728 14.5508 114.737 17.5195C114.747 19.4238 114.264 21.1084 113.287 22.5732C112.311 24.0381 111.007 25.1709 109.376 25.9717C107.745 26.7725 106.002 27.1777 104.146 27.1875Z" fill="#6F764D"/>
<path d="M127.511 13.3887C126.729 13.3887 126.339 14.0186 126.339 15.2783V26.6455H117.638V8.4375H122.442L124.537 11.2793C125.318 10.1953 126.397 9.33594 127.774 8.70117C129.161 8.06641 130.455 7.74902 131.656 7.74902C133.863 7.74902 135.611 8.33496 136.9 9.50684C138.199 10.6787 138.849 12.251 138.849 14.2236V26.6455H130.089V17.8564C130.089 14.8779 129.229 13.3887 127.511 13.3887Z" fill="#6F764D"/>
</svg>
