<svg width="70" height="70" viewBox="0 0 70 70" fill="none" xmlns="http://www.w3.org/2000/svg">
<path d="M56.9167 39.1765V24.9902C57.3517 25.0822 57.7783 25.2142 58.1911 25.3852C59.0707 25.7496 59.87 26.2836 60.5432 26.9568C61.2164 27.63 61.7504 28.4293 62.1148 29.3089C62.4791 30.1885 62.6667 31.1312 62.6667 32.0833C62.6667 33.0354 62.4791 33.9782 62.1148 34.8578C61.7504 35.7374 61.2164 36.5366 60.5432 37.2099C59.87 37.8831 59.0707 38.4171 58.1911 38.7815C57.7783 38.9524 57.3517 39.0845 56.9167 39.1765ZM53.9167 40.8333V42.3333V52.4047C53.9056 52.3967 53.8946 52.3887 53.8835 52.3806C52.3581 51.2712 50.2288 49.7898 47.8174 48.3058C45.4102 46.8245 42.6957 45.3244 40.0026 44.1905C37.8608 43.2886 35.6542 42.5844 33.5833 42.3415V21.8251C35.6542 21.5823 37.8608 20.878 40.0026 19.9762C42.6957 18.8423 45.4102 17.3422 47.8174 15.8608C50.2288 14.3769 52.3581 12.8954 53.8835 11.786C53.8946 11.778 53.9056 11.7699 53.9167 11.7619V21.8333V23.3333V40.8333ZM17.5 21.9167H30.5833V42.25H27.2895H26.25H17.5C14.44 42.25 11.9411 41.6277 10.2182 40.1732C8.54502 38.7606 7.33331 36.3295 7.33331 32.0833C7.33331 27.8372 8.54502 25.4061 10.2182 23.9935C11.9411 22.5389 14.44 21.9167 17.5 21.9167ZM24.3728 65.5833L16.7478 45.25H17.5H25.2105L32.8355 65.5833H24.3728Z" stroke="white" stroke-width="3"/>
</svg>
