<svg width="211" height="46" viewBox="0 0 211 46" fill="none" xmlns="http://www.w3.org/2000/svg">
<path fill-rule="evenodd" clip-rule="evenodd" d="M206 0C208.761 0 211 2.23858 211 5V31C211 33.7614 208.761 36 206 36H194.734L185.259 45.4001L182.789 36H137C134.239 36 132 33.7614 132 31V5C132 2.23858 134.239 0 137 0H206Z" fill="black"/>
<path d="M169.54 16V14.065H173.155V25H170.995V16H169.54ZM176.4 25.105C176.02 25.105 175.705 24.99 175.455 24.76C175.215 24.52 175.095 24.225 175.095 23.875C175.095 23.525 175.215 23.235 175.455 23.005C175.705 22.765 176.02 22.645 176.4 22.645C176.77 22.645 177.075 22.765 177.315 23.005C177.555 23.235 177.675 23.525 177.675 23.875C177.675 24.225 177.555 24.52 177.315 24.76C177.075 24.99 176.77 25.105 176.4 25.105ZM179.786 22.63C180.746 21.83 181.511 21.165 182.081 20.635C182.651 20.095 183.126 19.535 183.506 18.955C183.886 18.375 184.076 17.805 184.076 17.245C184.076 16.735 183.956 16.335 183.716 16.045C183.476 15.755 183.106 15.61 182.606 15.61C182.106 15.61 181.721 15.78 181.451 16.12C181.181 16.45 181.041 16.905 181.031 17.485H178.991C179.031 16.285 179.386 15.375 180.056 14.755C180.736 14.135 181.596 13.825 182.636 13.825C183.776 13.825 184.651 14.13 185.261 14.74C185.871 15.34 186.176 16.135 186.176 17.125C186.176 17.905 185.966 18.65 185.546 19.36C185.126 20.07 184.646 20.69 184.106 21.22C183.566 21.74 182.861 22.37 181.991 23.11H186.416V24.85H179.006V23.29L179.786 22.63ZM192.899 25L190.079 21.46V25H187.979V13.9H190.079V20.215L192.869 16.69H195.599L191.939 20.86L195.629 25H192.899Z" fill="white"/>
<path d="M160.689 13.3261C160.274 12.9057 159.781 12.5722 159.238 12.3447C158.695 12.1171 158.113 12 157.525 12C156.938 12 156.356 12.1171 155.813 12.3447C155.27 12.5722 154.777 12.9057 154.362 13.3261L153.5 14.1982L152.638 13.3261C151.799 12.4773 150.661 12.0004 149.474 12.0004C148.287 12.0004 147.149 12.4773 146.31 13.3261C145.471 14.1749 145 15.3262 145 16.5266C145 17.727 145.471 18.8782 146.31 19.727L147.172 20.5991L153.5 27L159.827 20.5991L160.689 19.727C161.105 19.3068 161.434 18.8079 161.659 18.2587C161.884 17.7096 162 17.121 162 16.5266C162 15.9321 161.884 15.3435 161.659 14.7944C161.434 14.2453 161.105 13.7463 160.689 13.3261V13.3261Z" fill="white"/>
<path d="M9.0589 9.61934C9.37597 8.73685 10.624 8.73685 10.9411 9.61935L12.1739 13.0507C12.3128 13.4371 12.6738 13.6994 13.0843 13.7121L16.7286 13.8242C17.6659 13.8531 18.0516 15.04 17.3102 15.6143L14.4278 17.8471C14.1032 18.0986 13.9653 18.523 14.0801 18.9173L15.0996 22.4179C15.3618 23.3182 14.3521 24.0518 13.5769 23.5242L10.5626 21.4729C10.2231 21.2418 9.77688 21.2418 9.43738 21.4729L6.42313 23.5242C5.64789 24.0518 4.63819 23.3182 4.90039 22.4179L5.91989 18.9173C6.03471 18.523 5.89682 18.0986 5.57217 17.8471L2.68976 15.6143C1.94844 15.04 2.33411 13.8531 3.2714 13.8242L6.91573 13.7121C7.3262 13.6994 7.68721 13.4371 7.82607 13.0507L9.0589 9.61934Z" fill="black"/>
<path d="M33.0589 9.61934C33.376 8.73685 34.624 8.73685 34.9411 9.61935L36.1739 13.0507C36.3128 13.4371 36.6738 13.6994 37.0843 13.7121L40.7286 13.8242C41.6659 13.8531 42.0516 15.04 41.3102 15.6143L38.4278 17.8471C38.1032 18.0986 37.9653 18.523 38.0801 18.9173L39.0996 22.4179C39.3618 23.3182 38.3521 24.0518 37.5769 23.5242L34.5626 21.4729C34.2231 21.2418 33.7769 21.2418 33.4374 21.4729L30.4231 23.5242C29.6479 24.0518 28.6382 23.3182 28.9004 22.4179L29.9199 18.9173C30.0347 18.523 29.8968 18.0986 29.5722 17.8471L26.6898 15.6143C25.9484 15.04 26.3341 13.8531 27.2714 13.8242L30.9157 13.7121C31.3262 13.6994 31.6872 13.4371 31.8261 13.0507L33.0589 9.61934Z" fill="black"/>
<path d="M57.0589 9.61934C57.376 8.73685 58.624 8.73685 58.9411 9.61935L60.1739 13.0507C60.3128 13.4371 60.6738 13.6994 61.0843 13.7121L64.7286 13.8242C65.6659 13.8531 66.0516 15.04 65.3102 15.6143L62.4278 17.8471C62.1032 18.0986 61.9653 18.523 62.0801 18.9173L63.0996 22.4179C63.3618 23.3182 62.3521 24.0518 61.5769 23.5242L58.5626 21.4729C58.2231 21.2418 57.7769 21.2418 57.4374 21.4729L54.4231 23.5242C53.6479 24.0518 52.6382 23.3182 52.9004 22.4179L53.9199 18.9173C54.0347 18.523 53.8968 18.0986 53.5722 17.8471L50.6898 15.6143C49.9484 15.04 50.3341 13.8531 51.2714 13.8242L54.9157 13.7121C55.3262 13.6994 55.6872 13.4371 55.8261 13.0507L57.0589 9.61934Z" fill="black"/>
<path d="M81.0589 9.61934C81.376 8.73685 82.624 8.73685 82.9411 9.61935L84.1739 13.0507C84.3128 13.4371 84.6738 13.6994 85.0843 13.7121L88.7286 13.8242C89.6659 13.8531 90.0516 15.04 89.3102 15.6143L86.4278 17.8471C86.1032 18.0986 85.9653 18.523 86.0801 18.9173L87.0996 22.4179C87.3618 23.3182 86.3521 24.0518 85.5769 23.5242L82.5626 21.4729C82.2231 21.2418 81.7769 21.2418 81.4374 21.4729L78.4231 23.5242C77.6479 24.0518 76.6382 23.3182 76.9004 22.4179L77.9199 18.9173C78.0347 18.523 77.8968 18.0986 77.5722 17.8471L74.6898 15.6143C73.9484 15.04 74.3341 13.8531 75.2714 13.8242L78.9157 13.7121C79.3262 13.6994 79.6872 13.4371 79.8261 13.0507L81.0589 9.61934Z" fill="black"/>
<path d="M105.059 9.61934C105.376 8.73685 106.624 8.73685 106.941 9.61935L108.174 13.0507C108.313 13.4371 108.674 13.6994 109.084 13.7121L112.729 13.8242C113.666 13.8531 114.052 15.04 113.31 15.6143L110.428 17.8471C110.103 18.0986 109.965 18.523 110.08 18.9173L111.1 22.4179C111.362 23.3182 110.352 24.0518 109.577 23.5242L106.563 21.4729C106.223 21.2418 105.777 21.2418 105.437 21.4729L102.423 23.5242C101.648 24.0518 100.638 23.3182 100.9 22.4179L101.92 18.9173C102.035 18.523 101.897 18.0986 101.572 17.8471L98.6898 15.6143C97.9484 15.04 98.3341 13.8531 99.2714 13.8242L102.916 13.7121C103.326 13.6994 103.687 13.4371 103.826 13.0507L105.059 9.61934Z" fill="black"/>
</svg>
