<svg width="50" height="50" viewBox="0 0 50 50" fill="none" xmlns="http://www.w3.org/2000/svg">
<path d="M21.5104 8.99375C22.3979 5.33542 27.6021 5.33542 28.4896 8.99375C28.6227 9.54333 28.8838 10.0537 29.2515 10.4833C29.6192 10.913 30.0831 11.2497 30.6055 11.4661C31.1279 11.6826 31.6941 11.7726 32.2579 11.7289C32.8217 11.6852 33.3672 11.509 33.85 11.2146C37.0646 9.25625 40.7458 12.9354 38.7875 16.1521C38.4935 16.6347 38.3176 17.1799 38.274 17.7433C38.2304 18.3067 38.3203 18.8724 38.5365 19.3945C38.7527 19.9166 39.089 20.3804 39.5182 20.748C39.9473 21.1157 40.4572 21.3769 41.0062 21.5104C44.6646 22.3979 44.6646 27.6021 41.0062 28.4896C40.4567 28.6227 39.9463 28.8838 39.5167 29.2515C39.087 29.6192 38.7503 30.0831 38.5339 30.6055C38.3174 31.1279 38.2274 31.6941 38.2711 32.2579C38.3148 32.8217 38.491 33.3672 38.7854 33.85C40.7437 37.0646 37.0646 40.7458 33.8479 38.7875C33.3653 38.4935 32.8201 38.3176 32.2567 38.274C31.6933 38.2304 31.1276 38.3203 30.6055 38.5365C30.0834 38.7527 29.6196 39.089 29.252 39.5182C28.8843 39.9473 28.6231 40.4572 28.4896 41.0062C27.6021 44.6646 22.3979 44.6646 21.5104 41.0062C21.3773 40.4567 21.1162 39.9463 20.7485 39.5167C20.3808 39.087 19.9169 38.7503 19.3945 38.5339C18.8721 38.3174 18.3059 38.2274 17.7421 38.2711C17.1783 38.3148 16.6328 38.491 16.15 38.7854C12.9354 40.7437 9.25417 37.0646 11.2125 33.8479C11.5065 33.3653 11.6824 32.8201 11.726 32.2567C11.7696 31.6933 11.6797 31.1276 11.4635 30.6055C11.2473 30.0834 10.911 29.6196 10.4818 29.252C10.0527 28.8843 9.54284 28.6231 8.99375 28.4896C5.33542 27.6021 5.33542 22.3979 8.99375 21.5104C9.54333 21.3773 10.0537 21.1162 10.4833 20.7485C10.913 20.3808 11.2497 19.9169 11.4661 19.3945C11.6826 18.8721 11.7726 18.3059 11.7289 17.7421C11.6852 17.1783 11.509 16.6328 11.2146 16.15C9.25625 12.9354 12.9354 9.25417 16.1521 11.2125C18.2271 12.4792 20.9354 11.3583 21.5104 8.99375Z" stroke="black" stroke-width="3" stroke-linecap="round" stroke-linejoin="round"/>
<path d="M31.25 25C31.25 26.6576 30.5915 28.2473 29.4194 29.4194C28.2473 30.5915 26.6576 31.25 25 31.25C23.3424 31.25 21.7527 30.5915 20.5806 29.4194C19.4085 28.2473 18.75 26.6576 18.75 25C18.75 23.3424 19.4085 21.7527 20.5806 20.5806C21.7527 19.4085 23.3424 18.75 25 18.75C26.6576 18.75 28.2473 19.4085 29.4194 20.5806C30.5915 21.7527 31.25 23.3424 31.25 25V25Z" stroke="black" stroke-width="3" stroke-linecap="round" stroke-linejoin="round"/>
</svg>
