<svg width="16" height="16" viewBox="0 0 16 16" fill="none" xmlns="http://www.w3.org/2000/svg">
<path d="M7.0589 1.61934C7.37597 0.736846 8.62403 0.736849 8.9411 1.61935L10.1739 5.05065C10.3128 5.43713 10.6738 5.69942 11.0843 5.71205L14.7286 5.82421C15.6659 5.85306 16.0516 7.04003 15.3102 7.61429L12.4278 9.84712C12.1032 10.0986 11.9653 10.523 12.0801 10.9173L13.0996 14.4179C13.3618 15.3182 12.3521 16.0518 11.5769 15.5242L8.56262 13.4729C8.22312 13.2418 7.77688 13.2418 7.43738 13.4729L4.42313 15.5242C3.64789 16.0518 2.63819 15.3182 2.90039 14.4179L3.91989 10.9173C4.03471 10.523 3.89682 10.0986 3.57217 9.84712L0.689763 7.61429C-0.051562 7.04003 0.334112 5.85306 1.2714 5.82421L4.91573 5.71205C5.3262 5.69942 5.68721 5.43713 5.82607 5.05065L7.0589 1.61934Z" fill="black"/>
</svg>
