<svg width="185" height="37" viewBox="0 0 185 37" fill="none" xmlns="http://www.w3.org/2000/svg">
<path d="M11.7578 36.7617C5.91146 36.7617 2.03125 36.0391 0.117188 34.5938V25.6484C0.169271 25.6615 0.358073 25.7201 0.683594 25.8242C1.02214 25.9284 1.44531 26.0586 1.95312 26.2148C3.13802 26.5794 4.38151 26.9245 5.68359 27.25C6.9987 27.5625 8.05339 27.7188 8.84766 27.7188C10.1497 27.7188 10.8008 27.3216 10.8008 26.5273C10.8008 25.9154 10.2409 25.2643 9.12109 24.5742C8.61328 24.2617 8.03385 23.9362 7.38281 23.5977C6.74479 23.2591 6.09375 22.8815 5.42969 22.4648C3.80208 21.4622 2.49349 20.2904 1.50391 18.9492C0.527344 17.6081 0.0390625 15.9154 0.0390625 13.8711C0.0390625 9.40495 2.39583 6.40365 7.10938 4.86719C9.02344 4.24219 11.2305 3.92969 13.7305 3.92969C16.2435 3.92969 18.8672 4.21615 21.6016 4.78906C22.1615 4.90625 22.5326 4.99089 22.7148 5.04297V14.0078C19.1732 13.2526 16.6276 12.875 15.0781 12.875C14.4792 12.875 14.0299 12.9792 13.7305 13.1875C13.431 13.3958 13.2812 13.6302 13.2812 13.8906C13.2812 14.151 13.4115 14.4245 13.6719 14.7109C13.9323 14.9844 14.3815 15.2643 15.0195 15.5508C15.6576 15.8242 16.3997 16.1628 17.2461 16.5664C18.1055 16.957 18.9062 17.3802 19.6484 17.8359C22.9818 19.8802 24.6484 22.6732 24.6484 26.2148C24.6484 29.5742 23.5156 32.1719 21.25 34.0078C18.9583 35.8307 15.7943 36.7487 11.7578 36.7617ZM31.4648 33.8516C30.4232 32.875 29.5898 31.651 28.9648 30.1797C28.3529 28.6953 28.0469 27.1003 28.0469 25.3945C28.0469 23.6888 28.2161 22.2109 28.5547 20.9609C29.2318 18.474 30.4167 16.3841 32.1094 14.6914C32.9167 13.8581 33.8151 13.1549 34.8047 12.582C36.8359 11.3971 38.9779 10.8047 41.2305 10.8047C43.4961 10.8047 45.4818 11.5534 47.1875 13.0508C47.7344 13.5326 48.2096 14.0859 48.6133 14.7109L51.4062 11.7227H57.8125V36H51.4062L48.6133 31.957C46.4779 35.1081 43.2422 36.6901 38.9062 36.7031C37.7083 36.7161 36.4258 36.4818 35.0586 36C33.7044 35.5312 32.5065 34.8151 31.4648 33.8516ZM47.2852 19.0859C46.8164 18.8125 46.2565 18.6758 45.6055 18.6758C44.9544 18.6758 44.2643 18.9102 43.5352 19.3789C42.819 19.8346 42.1745 20.4141 41.6016 21.1172C40.3255 22.6927 39.6875 24.2943 39.6875 25.9219C39.6875 27.0677 40.0391 27.875 40.7422 28.3438C41.3932 28.7734 42.3828 28.7148 43.7109 28.168C45.0521 27.6081 46.2435 26.8854 47.2852 26V19.0859ZM68.4961 0.472656C70.4102 0.472656 71.8294 0.876302 72.7539 1.68359C73.6784 2.47786 74.1341 3.49349 74.1211 4.73047C74.1211 5.96745 73.5286 7.10677 72.3438 8.14844C71.1719 9.1901 69.6029 9.71094 67.6367 9.71094C64.8763 9.71094 63.1576 8.8776 62.4805 7.21094C62.2852 6.74219 62.1875 6.22135 62.1875 5.64844C62.1875 5.07552 62.3242 4.47656 62.5977 3.85156C62.8711 3.22656 63.2812 2.66667 63.8281 2.17188C65.0391 1.03906 66.5951 0.472656 68.4961 0.472656ZM73.7891 36H62.4805V11.7227H73.7891V36ZM104.414 15.043C106.628 12.2174 109.44 10.8047 112.852 10.8047C113.789 10.8047 114.753 11 115.742 11.3906C116.745 11.7812 117.617 12.3477 118.359 13.0898C119.974 14.7044 120.781 16.8203 120.781 19.4375V36H109.453V23.4805C109.453 21.8789 109.199 20.6224 108.691 19.7109C108.184 18.7865 107.578 18.3242 106.875 18.3242C106.185 18.3112 105.729 18.7604 105.508 19.6719C105.443 19.9323 105.41 20.2253 105.41 20.5508V36H94.3359V23.4805C94.3359 21.8789 94.056 20.6224 93.4961 19.7109C92.9492 18.7865 92.3503 18.3242 91.6992 18.3242C90.6576 18.3242 90.1367 19.1641 90.1367 20.8438V36H78.5352V11.7227H84.9414L87.7344 15.5117C88.6849 14.0794 90.0391 12.9401 91.7969 12.0938C93.5677 11.2344 95.3711 10.8047 97.207 10.8047C99.5898 10.8047 101.562 11.612 103.125 13.2266C103.633 13.7474 104.062 14.3529 104.414 15.043ZM142.148 18.6367C141.888 18.5065 141.549 18.4414 141.133 18.4414C140.729 18.4414 140.28 18.5651 139.785 18.8125C139.29 19.0469 138.802 19.3724 138.32 19.7891C137.305 20.6745 136.452 21.7487 135.762 23.0117C135.072 24.2747 134.727 25.4401 134.727 26.5078C134.727 27.5625 135.13 28.2721 135.938 28.6367C136.224 28.7669 136.576 28.832 136.992 28.832C137.409 28.832 137.845 28.7083 138.301 28.4609C138.757 28.2005 139.212 27.8555 139.668 27.4258C140.618 26.5273 141.452 25.4401 142.168 24.1641C142.884 22.875 143.242 21.7227 143.242 20.707C143.242 19.6914 142.878 19.0013 142.148 18.6367ZM138.359 36.7227C134.635 36.7227 131.426 35.5443 128.73 33.1875C125.853 30.6875 124.414 27.543 124.414 23.7539C124.414 19.9518 125.762 16.8464 128.457 14.4375C131.152 12.0156 134.479 10.8047 138.438 10.8047C142.396 10.8047 145.723 11.9896 148.418 14.3594C151.113 16.7161 152.467 19.8737 152.48 23.832C152.493 26.3711 151.849 28.6172 150.547 30.5703C149.245 32.5234 147.507 34.0339 145.332 35.1016C143.158 36.1693 140.833 36.7096 138.359 36.7227ZM169.512 18.3242C168.47 18.3242 167.949 19.1641 167.949 20.8438V36H156.348V11.7227H162.754L165.547 15.5117C166.589 14.0664 168.027 12.9206 169.863 12.0742C171.712 11.2279 173.438 10.8047 175.039 10.8047C177.982 10.8047 180.312 11.5859 182.031 13.1484C183.763 14.7109 184.629 16.8073 184.629 19.4375V36H172.949V24.2812C172.949 20.3099 171.803 18.3242 169.512 18.3242Z" fill="white"/>
</svg>
